<svg width="215" height="215" xmlns="http://www.w3.org/2000/svg">
 <g>
  <title>background</title>
  <rect x="-1" y="-1" width="217" height="217" id="canvas_background" fill="none"/>
 </g>

 <g>
  <title>Layer 1</title>
  <g id="svg_1">
   <path fill="#3b9950" d="m99.6,202.7c-52.5,0 -95.3,-42.7 -95.3,-95.3c0,-52.5 42.7,-95.3 95.3,-95.3c52.5,0 95.3,42.7 95.3,95.3c0,52.5 -42.7,95.3 -95.3,95.3zm0,-180.6c-47,0 -85.3,38.2 -85.3,85.3s38.2,85.3 85.3,85.3s85.3,-38.2 85.3,-85.3s-38.2,-85.3 -85.3,-85.3z" id="svg_2"/>
   <path fill="#3b9950" d="m148.3,151.1c-2.7,3.9 -11.6,12.9 -16.2,15.4c-3.6,1.9 -9.1,3.9 -13.8,3.9l-38.7,0c-13.1,0 -22.4,-10.3 -28.2,-17.8c-1.8,-2.4 -2.2,-3.4 -4,-6.6l22,-7.1c0,0 4.4,6 9.8,9.9c0,0 0.4,0.2 1.6,0.2l36.4,0c0.9,0 1.3,-0.2 1.3,-0.2c3.3,-1.7 10,-8.1 10,-9.9l0,-12.6c0,-1.9 -1.6,-3.4 -2.7,-3.6l-57.8,-15.9c-11.3,-3 -17.3,-13.5 -17.3,-23.4l0,-11.6c0,-3.6 0.7,-8.4 3.3,-12.2c2.7,-3.9 11.8,-12.9 16.4,-15.4c3.6,-1.9 8.9,-3.9 13.8,-3.9l32.9,0c13.3,0 22.4,10.5 28.2,17.8c1.8,2.4 2.9,4.3 4.4,7.5l-22.4,6.2c0,0 -5.1,-7.1 -9.8,-9.9c0,0 -0.2,-0.2 -1.3,-0.2l-31.2,0c-0.9,0 -1.3,0.2 -1.3,0.2c-3.6,1.7 -9.6,7.7 -9.6,9.4l0,10.7c0,1.9 1.3,3.4 2.4,3.6l58,16.3c11.3,3 17.3,13.7 17.3,23.4l0,13.5c0.1,3.7 -0.6,8.4 -3.5,12.3z" id="svg_3"/>
   <rect fill="#3b9950" x="179.467018" y="183.014271" transform="matrix(0.265,0.9642,-0.9642,0.265,297.2811,-173.4374) " width="12" height="40.5" id="svg_4"/>
   <circle fill="#3b9950" cx="195.3" cy="177.7" r="16.4" id="svg_5"/>
   <rect fill="#3b9950" x="73.603365" y="272.62665" transform="matrix(0.3037,0.9528,-0.9528,0.3037,303.1784,-12.7289) " width="12" height="40.5" id="svg_6"/>
  </g>
  <path fill="#3b9950" d="m175.6,783.7c-56.1,-2.6 -102.2,43.6 -99.6,99.6c2.2,48.9 41.8,88.4 90.7,90.7c56.1,2.6 102.2,-43.6 99.6,-99.6c-2.2,-48.9 -41.8,-88.5 -90.7,-90.7zm-9.1,10c26.7,-1.4 50.9,9.5 67.5,27.5l-19.5,5.3c-5.8,-6.9 -14.2,-14.8 -25.8,-14.8l-32.9,0c-4.9,0 -10.2,1.9 -13.8,3.9c-4.7,2.6 -13.8,11.6 -16.4,15.4c-2.7,3.9 -3.3,8.6 -3.3,12.2l0,11.6c0,9.9 6,20.4 17.3,23.4l57.8,15.9c1.1,0.2 2.7,1.7 2.7,3.6l0,12.6c0,1.7 -6.7,8.1 -10,9.9c0,0 -0.4,0.2 -1.3,0.2l-36.4,0c-1.1,0 -1.6,-0.2 -1.6,-0.2c-5.3,-3.9 -9.8,-9.9 -9.8,-9.9l-22,7.1c0,0 0,0 0,0.1l-20.2,6.4c-9,-14.4 -13.9,-31.7 -12.8,-50.2c2.6,-43 37.4,-77.7 80.5,-80zm10.4,170.2c-28.2,1.9 -53.8,-10.1 -70.6,-29.8l19.7,-6.3c5.8,6.8 14.2,14 25.1,14l38.7,0c4.7,0 10.2,-1.9 13.8,-3.9c4.7,-2.6 13.6,-11.6 16.2,-15.4c2.9,-3.9 3.6,-8.6 3.6,-12.2l0,-13.5c0,-9.6 -6,-20.4 -17.3,-23.4l-58,-16.3c-1.1,-0.2 -2.4,-1.7 -2.4,-3.6l0,-10.7c0,-1.7 6,-7.7 9.6,-9.4c0,0 0.4,-0.2 1.3,-0.2l31.3,0c1.1,0 1.3,0.2 1.3,0.2c4.7,2.8 9.8,9.9 9.8,9.9l5.1,-1.4l0,0l38,-10.4c9.7,14.5 15.1,32.1 14.3,51.1c-1.9,43.1 -36.3,78.4 -79.5,81.3z" id="svg_7"/>
  <text transform="matrix(1,0.00143,-0.00143,1,277.9696,931.6473) " fill="#3b9950" font-family="'BlenderPro-Bold'" font-size="178.1876" id="svg_8">UEEZE</text>
  <line fill="none" stroke="#262628" stroke-width="7" stroke-miterlimit="10" x1="290" y1="950" x2="723" y2="949" id="svg_9"/>
  <text transform="matrix(1,0,0,1,488.4576,1049.7368) " fill="#3b9950" font-family="'Zapfino'" font-size="50.3962" id="svg_10">Wedding</text>
  <polygon fill="#3b9950" stroke="#BFA568" stroke-width="10" stroke-miterlimit="10" points="219.4,764.8 239.9,775.5 244.9,786   215.3,797.8 207.8,766.5 " id="svg_11"/>
  <path fill="#3b9950" d="m175.6,1412.1c-56.1,-2.6 -102.2,43.6 -99.6,99.6c2.2,48.9 41.8,88.4 90.7,90.7c56.1,2.6 102.2,-43.6 99.6,-99.6c-2.2,-48.8 -41.8,-88.4 -90.7,-90.7zm-9.1,10.1c26.7,-1.4 50.9,9.5 67.5,27.5l-19.5,5.3c-5.8,-6.9 -14.2,-14.8 -25.8,-14.8l-32.9,0c-4.9,0 -10.2,1.9 -13.8,3.9c-4.7,2.6 -13.8,11.6 -16.4,15.4c-2.7,3.9 -3.3,8.6 -3.3,12.2l0,11.6c0,9.9 6,20.4 17.3,23.4l57.8,15.9c1.1,0.2 2.7,1.7 2.7,3.6l0,12.6c0,1.7 -6.7,8.1 -10,9.9c0,0 -0.4,0.2 -1.3,0.2l-36.4,0c-1.1,0 -1.6,-0.2 -1.6,-0.2c-5.3,-3.9 -9.8,-9.9 -9.8,-9.9l-22,7.1c0,0 0,0 0,0.1l-20.2,6.4c-9,-14.4 -13.9,-31.7 -12.8,-50.2c2.6,-43.1 37.4,-77.7 80.5,-80zm10.4,170.2c-28.2,1.9 -53.8,-10.1 -70.6,-29.8l19.7,-6.3c5.8,6.8 14.2,14 25.1,14l38.7,0c4.7,0 10.2,-1.9 13.8,-3.9c4.7,-2.6 13.6,-11.6 16.2,-15.4c2.9,-3.9 3.6,-8.6 3.6,-12.2l0,-13.5c0,-9.6 -6,-20.4 -17.3,-23.4l-58,-16.3c-1.1,-0.2 -2.4,-1.7 -2.4,-3.6l0,-10.7c0,-1.7 6,-7.7 9.6,-9.4c0,0 0.4,-0.2 1.3,-0.2l31.3,0c1.1,0 1.3,0.2 1.3,0.2c4.7,2.8 9.8,9.9 9.8,9.9l5.1,-1.4l0,0l38,-10.4c9.7,14.5 15.1,32.1 14.3,51.1c-1.9,43.1 -36.3,78.4 -79.5,81.3z" id="svg_12"/>
  <text transform="matrix(1,0.00143,-0.00143,1,277.9696,1560.1158) " fill="#3b9950" font-family="'BlenderPro-Bold'" font-size="178.1876" id="svg_13">UEEZE</text>
  <line fill="none" stroke="#262628" stroke-width="7" stroke-miterlimit="10" x1="290" y1="1578.4" x2="723" y2="1577.4" id="svg_14"/>
  <text transform="matrix(1,0,0,1,488.4576,1678.2054) " fill="#3b9950" font-family="'Zapfino'" font-size="50.3962" id="svg_15">Wedding</text>
  <polygon fill="#3b9950" stroke="#BFA568" stroke-width="10" stroke-miterlimit="10" points="278.9,1564.9 266.8,1584.7 256.1,1589   246.2,1558.7 277.9,1553.3 " id="svg_16"/>
 </g>
</svg>